Patient4_TMGait_0pt3_02_right_20_EMG.mot
version=1
nRows=40
nColumns=33
inDegrees=no
endheader
time	1LAddLong	2LGlutMax	3LGlutMed	4LIliopsoas	5LSemiMemb	6LBicFemLong	7LRecFem	8LVastMed	9LVastLat	10LGasMed	11LTibAnt	12lTibPost	13LPeroneusLong	14LSol	15LExtDigLong	16LFlexDigLong	17RAddLong	18RGlutMax	19RGlutMed	20RIliopsoas	21RSemiMemb	22RBicFemLong	23RRecFem	24RVastMed	25RVastLat	26RGasMed	27RTibAnt	28RTibPost	29RPeroneusLong	30RSol	31RExtDigLong	32RFlexDigLong
40.235	0.021973	0.13428	-0.066986	0.009613	0.031891	-0.15533	0.036011	-0.023041	0.14236	-0.087128	0.007324	0.006866	-0.071106	-0.18585	0.062103	-0.010223	-0.022736	-0.12192	-0.60257	-0.052795	0.06012	-0.079651	0.001221	-0.041504	-0.021973	0.012054	-0.10559	-0.000305	0.18341	-0.16739	-0.002441	-0.003967
40.236	0.013733	0.20584	0.001373	0.007172	0.005188	-0.21973	0.10788	0.027771	0.15137	-0.059814	0.033112	0.002136	-0.027161	0.088806	0.052032	-0.010376	-0.013885	-0.050354	-0.4538	0.001984	0.048523	-0.059662	0.001373	-0.074768	-0.035858	0.007019	1.037	-0.001221	-0.066986	-0.09613	0.000305	-0.001373
40.237	0.004425	0.23392	0.1062	0.00351	0.002289	-0.13031	0.099945	-0.006561	0.15472	-0.035095	0.022278	-0.00061	-0.12268	0.25284	0.03006	-0.021515	-0.028534	-0.023804	-0.3273	0.085144	0.053101	-0.053558	-0.048523	-0.074463	-0.022583	-0.004272	0.87677	-0.005798	-0.18509	-0.07309	-0.004883	0.000153
40.238	0.009155	0.22507	0.024719	0.000153	0.017395	-0.035553	-0.030365	0.016174	0.12116	-0.044708	0.020752	-0.005493	-0.13962	0.31601	0.004425	-0.014648	-0.050049	-0.039978	-0.19318	0.054169	0.067139	-0.018005	-0.041656	-0.042267	-0.041656	-0.00412	0.58014	-0.003357	-0.16388	-0.11566	-0.00061	-0.013123
40.239	0.008698	0.23285	-0.10468	-0.002899	0.014191	-0.032806	-0.29709	0.006104	0.13763	-0.060272	0.019073	0.000153	0.016327	0.2771	-0.02533	-0.013123	-0.038452	-0.055084	-0.18173	0.083313	0.084381	-0.007019	-0.035858	-0.012665	-0.012054	-0.003967	0.56366	-0.001068	-0.088348	-0.10666	-0.002289	-0.002136
40.24	0.01709	0.26138	-0.3215	0.002899	0.007019	-0.048065	-0.3595	-0.021057	0.21316	-0.064545	0.015717	0.001831	-0.019531	0.053101	0.019989	0.019226	0.038147	-0.072327	-0.12634	0.19455	0.087891	-0.019226	-0.021667	0.001831	-0.002441	0.005798	-0.050507	-0.000916	0.11688	-0.16892	-0.006409	-0.001068
40.241	0.003967	0.23575	-0.45273	0.007629	0.0177	-0.032806	-0.23361	-0.042725	0.11871	-0.028992	0.02655	0.001373	-0.048523	-0.022888	0.024109	0.028992	0.059052	-0.06424	0.056915	0.22476	0.072021	-0.019531	-0.023193	0.022583	-0.003967	0.013123	-0.5307	-0.001221	0.14832	-0.14648	-0.001068	-0.010376
40.242	-0.005646	0.15121	-0.18524	0.001526	0.020294	0.004883	-0.090485	-0.035706	-0.001526	-0.020142	0.020905	0.000458	-0.019684	0.10956	-0.037994	0.007935	0.026245	-0.002594	0.045013	0.24735	0.075226	-0.015564	-0.005798	-0.00885	-0.00824	0.002136	-0.58792	-0.000305	-0.062408	0.11002	-0.003204	-0.006256
40.243	-0.020599	0.16098	0.000305	0.026703	0.014801	0.05127	0.002594	-0.016785	-0.040436	-0.018005	0.001221	0.005341	0.23895	0.10666	-0.050659	0	-0.027008	0.024872	0.13855	0.088196	0.072174	-0.02243	0.02182	-0.017242	-0.023651	-0.005188	-0.29251	-0.008698	-0.098724	0.19028	0.000458	-0.011749
40.244	-0.016632	0.075226	-0.026093	0.00946	-0.011139	0.078278	-0.031281	-0.001831	-0.030823	-0.003052	0.036926	-0.00351	0.17944	0.09079	-0.084839	0.008087	-0.045471	-0.00824	0.15335	-0.036621	0.090637	-0.016327	0.088654	-0.039825	-0.018158	-0.002747	-0.06134	-0.001373	-0.10529	0.083466	0.000153	-0.006714
40.245	-0.000916	0.014038	0.00351	-0.010986	-0.005341	0.1033	-0.083771	0.015564	0.04425	0.015717	0.035248	0.016632	0.10407	0.060577	-0.090027	-0.00061	0.006256	-0.096588	-0.13016	-0.058441	0.088959	-0.028076	0.069427	-0.024567	-0.009308	0.004578	-0.067596	-0.000305	-0.020752	-0.09491	-0.002747	-0.007629
40.246	0.004883	-0.027466	-0.095215	0.018463	-0.021973	0.14496	-0.004425	0.036011	0.092926	0.027313	0.048523	0.000153	0.13519	0.080566	-0.019226	0	0.007324	-0.031433	-0.10025	-0.091248	0.067749	-0.040436	0.080414	0.00946	-0.014191	0.004883	-0.47348	0.004272	0.12024	-0.14984	-0.000153	-0.001373
40.247	-0.013733	-0.031433	-0.14023	0.035095	0.019684	0.26825	0.039825	0.03006	0.090485	0.001068	0.067902	-0.00412	0.19775	0.11963	0.047302	-0.00946	-0.003967	-0.010529	-0.091858	-0.085449	0.075378	-0.037079	0.089569	-0.001373	-0.0177	0.000916	-0.72601	-0.000153	0.010071	-0.097961	0.002441	-0.006561
40.248	-0.019684	0.003357	0.003662	0.023193	-0.001831	0.21576	0.035553	0.022736	0.086212	0.018158	0.047607	0.003204	-0.35553	0.14832	0.099945	0.002289	0.01297	0.017548	-0.013428	-0.087128	0.056763	-0.040894	0.088959	0.021362	-0.02533	-0.005493	-0.48523	0.005188	-0.045624	-0.060577	-0.001984	-0.011444
40.249	-0.00824	0.086975	0.096436	-0.013123	-0.045776	0.10178	-0.032501	0.037384	0.10315	-0.020447	0.060577	-0.00351	-0.26749	0.068054	0.12238	0.00061	0.033417	0.044403	0.15808	-0.10666	0.052643	-0.033722	0.079956	-0.004272	-0.009308	-0.007019	-0.24567	-0.001221	-0.079651	0.056458	-0.001373	-0.001221
40.25	-0.011902	0.099487	0.068665	0.006866	-0.021057	-0.24811	-0.033417	0.037231	0.1178	-0.050354	0.000153	0.006409	0.31677	-0.00885	0.032196	-0.001984	0.096588	0.051575	0.17883	-0.051575	0.049133	-0.00473	0.091095	-0.047455	-0.012512	0.006104	0.018616	0.000763	-0.076599	0.053711	-0.005646	-0.005493
40.251	-0.010681	0.16373	0.078125	-0.002136	-0.027313	-0.20966	-0.12161	0.017395	0.14389	-0.035095	0.027618	0.00824	-0.1445	0.026398	-0.007629	-0.01236	0.085907	0.077362	-0.070343	0.015411	0.043335	-0.006256	0.035706	-0.013885	0.008392	-0.001221	0.046997	-0.002289	-0.037842	-0.042572	-0.002136	-0.010834
40.252	-0.006409	0.16388	0.21805	-0.000916	-0.097046	-0.050354	-0.22903	0.002899	0.13229	0.007935	0.05188	0.007935	-0.24323	-0.045776	-0.068665	-0.000916	0.051422	0.098877	-0.19211	0.05722	0.048523	0.013123	0.036163	-0.042877	0.021667	-0.012512	0.23468	0.001678	-0.17181	0.067291	0.001526	-0.012207
40.253	0.001984	0.14175	0.10254	0.002747	-0.088654	-0.013275	-0.17441	-0.004883	0.042725	0.018005	-0.005493	0.005188	0.55756	0.21347	0.069275	-0.00061	0.02121	0.088654	-0.10742	0.099487	0.066986	0.012207	0.00824	-0.027618	0.02533	-0.006409	0.34912	0.000305	-0.14587	0.021057	-0.001831	-0.011597
40.254	0.016022	0.14404	0.21439	0.001221	0.08667	-0.02182	-0.098419	-0.016327	-0.11276	0.076752	0.00473	0.010223	0.44281	0.15839	0.11353	-0.011139	-0.02121	0.023956	-0.086365	0.063019	0.065765	0.020599	0.024567	-0.028229	0.016632	0.008087	0.3833	0.00061	-0.052948	-0.022583	-0.002289	-0.013123
40.255	0.010834	0.13031	0.30167	-0.023651	0.095673	-0.061646	-0.042267	-0.023651	-0.16342	0.27023	0.00946	0.010834	-0.4805	0.01709	0.043793	-0.001221	-0.062103	-0.002136	-0.12543	0.009308	0.059662	0.030823	0.0383	-0.056305	-0.007935	0.007782	0.51804	-0.000305	0.013123	0.035248	-0.000153	-0.010986
40.256	-0.002289	0.081177	0.045776	0.001221	0.070801	-0.016022	-0.01236	-0.021973	-0.12665	0.18631	0.012817	0.005035	-0.67856	0.079498	0.031586	0.006256	-0.1239	0.004272	-0.087891	-0.030365	0.06424	0.035095	0.000305	-0.01236	-0.001526	0.012512	0.49561	0.000763	0.11795	0.015869	-0.002289	0.001526
40.257	-0.001373	0.05722	-0.12909	-0.023651	0.01709	-0.006561	0.018768	-0.013428	-0.042114	-0.08606	0.010986	0.004425	-0.087128	-0.14114	-0.056152	0.009003	-0.17181	0.040894	0.025635	-0.09613	0.084991	0.026398	-0.062408	0.061646	0.018768	0.007629	-0.30823	0.00412	0.11368	-0.013428	-0.002136	-0.005341
40.258	0.01709	0.091248	0.018158	0.001984	0.081482	-0.055847	0.09552	-0.006714	-0.036163	-0.23712	0.00946	0.00824	0.028076	-0.34592	-0.12375	0.005188	-0.1181	0.055847	0.068359	-0.15015	0.070343	0.017242	-0.040894	0.021973	0.007782	-0.011292	-0.14008	-0.000763	-0.072937	0.091705	-0.000916	-0.006866
40.259	0.033722	0.13825	0.1294	0.015717	0.04303	-0.049286	0.031891	-0.014648	-0.016479	-0.34042	0.016937	-0.011292	0.03952	-0.24643	-0.041809	-0.00824	-0.095215	0.10391	-0.004272	-0.14679	0.063782	-0.002136	-0.009766	0.041656	0.003052	-0.007629	0.000763	0.00946	-0.027771	0.083466	-0.001068	-0.002747
40.26	0.024719	0.14816	0.028992	0.002441	0.017853	-0.036316	-0.012817	-0.009918	0.022583	-0.25894	0.014954	0	0.066223	-0.16403	0.021515	-0.00473	-0.065308	0.06073	-0.13977	-0.25162	0.068512	-0.003052	-0.025024	0.009613	0.002594	-0.001678	-0.26382	0.001526	0.045624	0.054321	-0.00412	0.002136
40.261	0.021057	0.22873	0.13886	-0.001373	0.045166	0.023956	-0.051575	-0.009308	0.014191	-0.22797	-0.014038	-0.007477	0.22888	-0.090637	0.033417	0.002594	-0.048828	-0.010223	0.060577	-0.1857	0.073395	-0.037537	-0.016327	0.014648	-0.01236	-0.003052	-0.24765	0.002747	0.080414	0.02594	-0.001221	-0.003815
40.262	0.010376	0.22263	0.16312	0.023041	0.046082	0.027161	-0.081177	0.008545	0.062714	-0.066376	0.040131	-0.079193	-0.055237	-0.13657	0.019379	-0.005341	-0.03418	-0.035706	0.062561	0.0177	0.058746	-0.048981	0.005493	-0.011902	-0.014191	0.000763	-0.020905	0.001068	-0.001984	0.016174	-0.001984	-0.005188
40.263	-0.006561	0.21973	0.15442	0.037384	0.054626	0.076599	-0.03418	0.01358	0.004578	-0.041809	0.040894	0.12207	0.3125	-0.072937	-0.023499	-0.005798	-0.026093	-0.053406	0.094299	0.060883	0.054474	-0.044556	-0.000916	-0.018768	-0.011292	0.011902	0.023346	-0.000458	0.006561	0.02243	-0.003815	0.00351
40.264	-0.005646	0.24368	0.28412	0.002136	0.039215	0.091858	0.046844	-0.007172	-0.049591	-0.12253	0.006866	0.013885	0.18784	0.002594	-0.11261	-0.02533	-0.02182	-0.006409	0.13214	0.11017	0.050812	-0.061798	0.024414	-0.026398	-0.018005	-0.00412	0.20966	0	-0.059357	0.03891	-0.000916	-0.007477
40.265	-0.014954	0.25162	0.10101	0.010681	0.00946	0.055542	0.092926	0.009918	-0.10941	0.12482	0.039368	0.001984	0.055389	-0.093384	-0.075073	0.005188	-0.018768	-0.033112	0.050354	0.23514	0.047913	-0.052948	0.017548	-0.02533	-0.019379	0.000305	0.34454	0.000763	-0.050507	0.010223	0.000763	-0.005798
40.266	-0.007477	0.24414	0.034943	0.007935	-0.012207	0.009003	-0.000458	0.01236	-0.066376	0.024414	0.028687	0.012665	-0.055084	0.020294	-0.009766	0.01297	-0.010529	-0.015717	-0.076447	0.34286	0.042725	-0.054321	0.017242	-0.051422	-0.027924	-0.003815	0.36392	-0.000763	-0.097961	0.001984	0.005341	-0.005493
40.267	-0.00946	0.19699	0.034637	-0.016479	-0.026245	-0.009308	-0.031891	0.023193	-0.028687	-0.009003	0.024261	0.009766	-0.055847	0.11627	0.00412	0.021362	-0.016632	0.044098	0.069427	0.21378	0.046692	-0.05188	0.01709	-0.046997	-0.022125	-0.006409	0.089417	0.000153	-0.13016	0.036774	-0.00351	-0.000916
40.268	-0.005035	0.088959	0.11322	0.009308	-0.030518	0.033722	0.011902	0.018463	0.10086	0.25238	0.027771	0.007019	0.62271	0.25207	0.029297	0.015717	-0.006561	0.086517	0.034485	0.094299	0.046997	-0.039978	0.030365	-0.032959	-0.010986	0.001373	-0.065918	-0.000153	-0.16403	0.084991	-0.001831	-0.000305
40.269	0.007629	0.042572	0.15121	-0.002289	-0.030212	0.13153	0.041656	0.011139	0.22034	0.40848	0.017548	-0.000763	0.46738	0.073395	-0.020905	-0.023499	-0.000458	0.062256	-0.03006	0.072327	0.038147	-0.032806	0.032043	-0.025482	-0.013885	0.001068	-0.14023	-0.00061	-0.18021	0.019531	-0.003052	-0.010834
40.27	0.005646	0.018311	0.083923	-0.006714	-0.080872	0.20508	0.046234	0.002747	0.18707	0.43045	0.012665	0.011597	0.24796	-0.079346	0.013123	0.004425	-0.004272	0.040131	0.041809	-0.004578	0.044098	-0.041351	-0.006714	-0.020752	-0.014038	0.008087	-0.37155	-0.00473	-0.20859	-0.12695	-0.000916	-0.009766
40.271	0.007477	-0.054321	-0.030975	0.009308	-0.070496	0.22644	0.017395	0.02533	0.22766	0.24811	-0.000153	0.00473	-0.40085	-0.19028	0.021362	-0.00473	-0.004883	0.032501	-0.075836	0.007019	0.043488	-0.034943	-0.002747	-0.018311	0.002136	0.006561	-0.15045	0.000458	0.061951	-0.26321	-0.001373	-0.000153
40.272	0.016174	-0.094452	-0.076447	0.010681	0.074463	0.20309	0.001221	0.027771	0.19363	-0.23911	0.022736	0.007019	-0.18051	-0.11002	0.022583	-0.004883	-0.02182	0.046082	0.071259	-0.074921	0.036926	-0.036926	0.005035	-0.01297	-0.019379	0.016327	-0.007935	0.009155	0.34759	-0.29755	0.000305	-0.001526
40.273	0.019531	-0.17548	-0.14389	0.00946	0.074921	0.20752	0.035095	0.019073	0.15686	-0.54901	0.01297	0.005951	0.17502	0.093384	-0.01297	-0.003357	-0.021362	0.084534	0.14084	-0.080719	0.031586	-0.043793	-0.019531	-0.034943	0.00885	0.020447	0.081024	0.000916	0.16235	-0.25238	0.001526	0.003052
40.274	0.009766	-0.31693	-0.24094	0.009613	0.029755	0.15167	0.065765	0.005035	0.2211	-0.34485	0.039063	0.00412	-0.16342	0.16037	-0.090027	-0.014191	-0.029297	0.025635	0.036011	-0.090179	0.027618	-0.030365	-0.02594	-0.030823	-0.007019	0.018463	0.49316	-0.00473	0.011139	-0.1445	0.002289	-0.009918
